<?xml version="1.0" encoding="UTF-8"?>
<svg width="821px" height="160px" viewBox="0 0 821 160" version="1.1" xmlns="http://www.w3.org/2000/svg" xmlns:xlink="http://www.w3.org/1999/xlink">
    <!-- Generator: Sketch 60.1 (88133) - https://sketch.com -->
    <title>白</title>
    <desc>Created with Sketch.</desc>
    <defs>
        <linearGradient x1="50.7669697%" y1="8.80727273%" x2="50.7669697%" y2="107.212121%" id="linearGradient-1">
            <stop stop-color="#5C93F2" offset="0%"></stop>
            <stop stop-color="#2F5AE0" offset="100%"></stop>
        </linearGradient>
        <linearGradient x1="51.0981211%" y1="-21.1417989%" x2="51.0981211%" y2="77.517037%" id="linearGradient-2">
            <stop stop-color="#5C93F2" offset="0%"></stop>
            <stop stop-color="#2F5AE0" offset="100%"></stop>
        </linearGradient>
        <linearGradient x1="49.9728884%" y1="-21.1417989%" x2="49.9728884%" y2="102.755344%" id="linearGradient-3">
            <stop stop-color="#5C93F2" offset="0%"></stop>
            <stop stop-color="#2F5AE0" offset="91%"></stop>
        </linearGradient>
    </defs>
    <g id="页面-1" stroke="none" stroke-width="1" fill="none" fill-rule="evenodd">
        <g id="白" fill-rule="nonzero">
            <polygon id="路径" fill="#FFFFFF" points="301.83 135.94 279.14 135.94 279.14 88.66 254.31 135.94 239.85 135.94 214.85 88.38 214.85 135.94 192.15 135.94 192.15 41.09 215.15 41.09 247.07 99.84 279 41.09 301.83 41.09"></polygon>
            <polygon id="路径" fill="#FFFFFF" points="353.44 160 328.9 160 340.39 133.53 310.89 64.72 335.29 64.72 352.17 106.2 370.17 64.72 394.57 64.72"></polygon>
            <polygon id="路径" fill="#FFFFFF" points="458.22 61.48 458.22 135.94 435 135.94 435 61.48 404.17 61.48 404.17 41.09 489 41.09 489 61.48"></polygon>
            <path d="M552.37,64.45 L551.37,87.1 L547.25,87.1 C531.37,87.1 522.71,95.31 522.71,113.72 L522.71,135.94 L500,135.94 L500,64.87 L522.69,64.87 L522.69,78.47 C527.8,69.97 535.6,63.88 547.23,63.88 C548.960958,63.8428443 550.689239,64.034502 552.37,64.45 Z" id="路径" fill="#FFFFFF"></path>
            <path d="M639.29,135.94 L616.59,135.94 L616.59,130.28 C611.06,135.28 603.68,138.07 594.46,138.07 C575.6,138.07 559.71,122.92 559.71,100.41 C559.71,77.9 575.6,62.75 594.46,62.75 C603.68,62.75 611.06,65.58 616.59,70.54 L616.59,64.87 L639.29,64.87 L639.29,135.94 Z M616.59,100.41 C616.59,89.51 608.36,82.01 599.15,82.01 C589.22,82.01 581.98,89.51 581.98,100.41 C581.98,111.31 589.22,118.81 599.15,118.81 C608.36,118.81 616.59,111.45 616.59,100.41 L616.59,100.41 Z" id="形状" fill="#FFFFFF"></path>
            <path d="M731.14,135.94 L708.45,135.94 L708.45,130.28 C702.91,135.28 695.54,138.07 686.32,138.07 C667.45,138.07 651.57,122.92 651.57,100.41 C651.57,77.9 667.45,62.75 686.32,62.75 C695.54,62.75 702.91,65.58 708.45,70.54 L708.45,34 L731.14,34 L731.14,135.94 Z M708.45,100.41 C708.45,89.51 700.22,82.01 691,82.01 C681.07,82.01 673.84,89.51 673.84,100.41 C673.84,111.31 681.07,118.81 691,118.81 C700.22,118.81 708.45,111.45 708.45,100.41 L708.45,100.41 Z" id="形状" fill="#FFFFFF"></path>
            <path d="M820.18,104.21 L768,104.21 C769.84,112.71 775.65,117.95 783.31,117.95 C788.56,117.95 794.66,116.67 798.49,109.73 L818.63,113.84 C812.53,128.84 799.63,136.07 783.31,136.07 C762.75,136.07 745.73,120.92 745.73,98.41 C745.73,75.9 762.73,60.75 783.46,60.75 C803.6,60.75 819.77,75.19 820.19,98.41 L820.18,104.21 Z M768.41,90.34 L797.77,90.34 C795.65,82.69 789.97,79.16 783.45,79.16 C776.506314,79.1213978 770.374109,83.6797792 768.41,90.34 L768.41,90.34 Z" id="形状" fill="#FFFFFF"></path>
            <rect id="矩形" fill="url(#linearGradient-1)" x="19.88" y="22.47" width="132" height="132" rx="29.99"></rect>
            <path d="M20.06,63.62 C9.33,64.62 0.9,74.84 0.9,87.24 C0.9,99.64 9.33,109.82 20.06,110.87 L20.06,63.62 Z" id="路径" fill="url(#linearGradient-2)"></path>
            <path d="M20.06,72.2 C14.72,74.53 10.93,80.39 10.93,87.2 C10.93,94.01 14.72,100 20.06,102.3 L20.06,72.2 Z" id="路径" fill="#FFFFFF"></path>
            <path d="M151.72,110.87 C162.45,109.82 170.9,99.65 170.9,87.24 C170.9,74.83 162.49,64.66 151.76,63.62 L151.72,110.87 Z" id="路径" fill="url(#linearGradient-3)"></path>
            <path d="M151.72,102.3 C157.04,99.96 160.84,94.11 160.84,87.24 C160.84,80.37 157.04,74.53 151.72,72.24 L151.72,102.3 Z" id="路径" fill="#FFFFFF"></path>
            <path d="M89.34,24.72 C97.26,23.72 102.27,20.16 104.8,10.37 C105.414984,7.03213667 105.776018,3.65245109 105.88,0.26 C105.88,0.26 96.4,12.72 84.28,9.38 C72.55,6.16 65.88,26.26 65.88,26.26 C67.12,23.43 79.62,25.01 82.02,25.05 C84.4647015,25.1100005 86.9106144,24.9997339 89.34,24.72 L89.34,24.72 Z" id="路径" fill="#598FF0"></path>
            <path d="M133.88,66.11 C134.090216,54.2204731 125.954089,43.8046376 114.36739,41.1300414 C102.780692,38.4554453 90.9023709,44.2512788 85.88,55.03 C80.8576291,44.2512788 68.9793078,38.4554453 57.3926096,41.1300414 C45.8059114,43.8046376 37.6697837,54.2204731 37.88,66.11 C37.8437664,75.6577525 43.1096132,84.436732 51.55,88.9 C51.2842727,90.1559719 51.1502147,91.4362257 51.15,92.72 L51.15,101.17 C51.15,120.67 66.7,136.47 85.89,136.47 C105.08,136.47 120.61,120.67 120.61,101.18 L120.61,92.73 C120.609251,91.4429475 120.475202,90.1594333 120.21,88.9 C128.650387,84.436732 133.916234,75.6577525 133.88,66.11 Z M60.88,69.48 C58.1185763,69.48 55.88,67.2414237 55.88,64.48 C55.88,61.7185763 58.1185763,59.48 60.88,59.48 C63.6414237,59.48 65.88,61.7185763 65.88,64.48 C65.88,65.8130421 65.3477711,67.0909113 64.4014202,68.0297515 C63.4550692,68.9685918 62.1729994,69.4906643 60.84,69.48 L60.88,69.48 Z M68.56,89.48 C68.93,87.88 72.91,87.48 77.44,88.56 C81.97,89.64 85.34,91.84 84.96,93.44 C84.58,95.04 80.61,95.44 76.08,94.36 C71.55,93.28 68.14,91.13 68.52,89.53 L68.56,89.48 Z M69.3,111.95 L94.8,121.22 C78.35,125.51 69.26,112 69.26,112 L69.3,111.95 Z M95.76,94.36 C91.23,95.45 87.26,95.04 86.88,93.44 C86.5,91.84 89.88,89.66 94.41,88.56 C98.94,87.46 102.91,87.88 103.29,89.48 C103.67,91.08 100.25,93.31 95.72,94.41 L95.76,94.36 Z M110.97,69.43 C108.208576,69.43 105.97,67.1914237 105.97,64.43 C105.97,61.6685763 108.208576,59.43 110.97,59.43 C113.731424,59.43 115.97,61.6685763 115.97,64.43 C115.983461,65.7716874 115.457111,67.0624864 114.509288,68.0121902 C113.561465,68.961894 112.271711,69.4908016 110.93,69.48 L110.97,69.43 Z" id="形状" fill="#FFFFFF"></path>
        </g>
    </g>
</svg>